<?xml version="1.0" encoding="UTF-8"?><svg id="icon" xmlns="http://www.w3.org/2000/svg" viewBox="0 0 283.465 283.465"><defs><style>.cls-1{fill:#fff;}</style></defs><path class="cls-1" d="M34.765,160.115v88.585h88.585v-88.585H34.765ZM108.583,233.934h-59.053v-59.052h59.053v59.052Z"/><rect class="cls-1" x="64.29" y="189.641" width="29.534" height="29.534"/><path class="cls-1" d="M34.765,34.765v88.585h88.585V34.765H34.765ZM108.583,108.583h-59.053v-59.052h59.053v59.052Z"/><rect class="cls-1" x="64.29" y="64.29" width="29.534" height="29.534"/><path class="cls-1" d="M160.115,34.765v88.585h88.585V34.765h-88.585ZM233.934,108.583h-59.053v-59.052h59.053v59.052Z"/><rect class="cls-1" x="189.641" y="64.29" width="29.534" height="29.534"/><polygon class="cls-1" points="242.021 183.334 205.48 183.334 205.48 146.793 183.334 146.793 183.334 183.334 146.794 183.334 146.794 205.48 183.334 205.48 183.334 242.021 205.48 242.021 205.48 205.48 242.021 205.48 242.021 183.334"/></svg>